# xmcd
#
# Track frame offsets:
#	150
#	13962
#	27391
#	39377
#	49344
#	61710
#	72082
#	85942
#	98393
#	110967
#	122626
#	132106
#	145189
#	159211
#	172233
#	186360
#	196395
#	214908
#	230014
#	245167
#	258791
#	269591
#	281430
#
# Disc length: 3918 seconds
#
# Revision: 0
# Processed by: cddbd v1.5.2PL0 Copyright (c) Steve Scherf et al.
# Submitted via: audiograbber 1.83.01
#
DISCID=560f4c17
DTITLE=Tom T. Hall - Ballad Of Fourty Dollars/Homecoming
DYEAR=1992
DGENRE=Country
TTITLE0=That's How I Got To Memphis
TTITLE1=Cloudy Day
TTITLE2=Shame On The Rain
TTITLE3=Highways
TTITLE4=Forbidden Flowers
TTITLE5=Ain't Got The Time
TTITLE6=Ballad Of Fourty Dollars
TTITLE7=I Washed My Face In The Morning Dew
TTITLE8=A Picture Of Your Mother
TTITLE9=The World The Way I Want It
TTITLE10=Over And Over Again
TTITLE11=Beauty Is A Fading Flower
TTITLE12=A Week In The Country Jail
TTITLE13=Strawberry Farms
TTITLE14=Shoeshine Man
TTITLE15=Kentucky In The Morning
TTITLE16=Nashville Is A Groovy Little town
TTITLE17=Margie's At Lincoln park Inn
TTITLE18=Homecoming
TTITLE19=The Carter Boys
TTITLE20=Flat-Footin' It
TTITLE21=George (And The Northwoods)
TTITLE22=I Miss A Lot Of Trains
EXTD=
EXTT0=
EXTT1=
EXTT2=
EXTT3=
EXTT4=
EXTT5=
EXTT6=
EXTT7=
EXTT8=
EXTT9=
EXTT10=
EXTT11=
EXTT12=
EXTT13=
EXTT14=
EXTT15=
EXTT16=
EXTT17=
EXTT18=
EXTT19=
EXTT20=
EXTT21=
EXTT22=
PLAYORDER=
